<?xml version="1.0" encoding="UTF-8"?>
<svg id="_Слой_1" data-name="Слой 1" xmlns="http://www.w3.org/2000/svg" viewBox="0 0 321.55 45">
  <defs>
    <style>
      .cls-1 {
        fill: #171c1f;
      }

      .cls-2 {
        fill: #fff;
      }

      .cls-3 {
        fill: #77b9ad;
      }
    </style>
  </defs>
  <rect class="cls-3" y="0" width="45" height="45"/>
  <rect class="cls-1" x="45" y="0" width="232.33" height="45"/>
  <g>
    <path class="cls-2" d="M67.67,12.67c2.8,0,5.13.98,6.98,2.95,1.86,1.96,2.78,4.38,2.78,7.26s-.93,5.27-2.78,7.25c-1.86,1.97-4.19,2.96-6.98,2.96h-8.02V12.67h8.02ZM67.67,29.88c1.92,0,3.49-.66,4.71-1.98,1.21-1.32,1.82-2.99,1.82-5.02s-.61-3.72-1.82-5.03c-1.22-1.31-2.79-1.97-4.71-1.97h-4.67v14h4.67Z"/>
    <path class="cls-2" d="M87.04,33.47c-2.14,0-3.96-.74-5.45-2.22-1.5-1.48-2.25-3.29-2.25-5.45s.75-3.98,2.25-5.45,3.31-2.22,5.45-2.22,3.98.74,5.47,2.22,2.23,3.29,2.23,5.45-.74,3.98-2.23,5.45c-1.49,1.48-3.31,2.22-5.47,2.22ZM83.8,29.09c.88.88,1.95,1.31,3.24,1.31s2.36-.44,3.24-1.31c.87-.88,1.31-1.97,1.31-3.3s-.44-2.42-1.31-3.3c-.88-.87-1.95-1.31-3.24-1.31s-2.36.44-3.24,1.31c-.88.88-1.31,1.97-1.31,3.3s.44,2.42,1.31,3.3Z"/>
    <path class="cls-2" d="M104.33,33.47c-2.2,0-4.03-.74-5.5-2.22-1.47-1.48-2.2-3.29-2.2-5.45s.73-4,2.2-5.47c1.47-1.47,3.3-2.2,5.5-2.2,1.42,0,2.71.34,3.88,1.02,1.17.68,2.04,1.59,2.62,2.74l-2.71,1.57c-.33-.7-.83-1.25-1.5-1.65-.67-.4-1.44-.6-2.32-.6-1.28,0-2.36.44-3.22,1.31-.87.88-1.3,1.96-1.3,3.27s.43,2.39,1.3,3.27c.86.88,1.94,1.31,3.22,1.31.85,0,1.63-.2,2.32-.61.69-.41,1.21-.95,1.56-1.63l2.71,1.55c-.62,1.17-1.52,2.09-2.68,2.77s-2.46,1.02-3.88,1.02Z"/>
    <path class="cls-2" d="M122.94,18.51h3.15v14.58h-3.15v-1.87c-.95,1.5-2.46,2.25-4.52,2.25-1.67,0-3.02-.53-4.05-1.6-1.03-1.07-1.55-2.54-1.55-4.4v-8.95h3.15v8.63c0,1.09.29,1.92.87,2.51.58.58,1.38.87,2.39.87,1.11,0,2-.34,2.68-1.04.68-.69,1.02-1.74,1.02-3.16v-7.82Z"/>
    <path class="cls-2" d="M145.54,18.13c1.65,0,2.98.53,4,1.6,1.01,1.07,1.52,2.51,1.52,4.32v9.04h-3.15v-8.84c0-1.01-.25-1.79-.76-2.35-.51-.55-1.2-.83-2.07-.83-.97,0-1.75.32-2.32.96-.57.64-.86,1.6-.86,2.89v8.17h-3.15v-8.84c0-1.01-.24-1.79-.71-2.35-.48-.55-1.15-.83-2.03-.83-.95,0-1.73.33-2.33.98s-.9,1.61-.9,2.87v8.17h-3.15v-14.58h3.15v1.75c.93-1.42,2.32-2.13,4.17-2.13s3.25.77,4.14,2.3c.97-1.54,2.46-2.3,4.46-2.3Z"/>
    <path class="cls-2" d="M156.76,27.14c.23,1.11.77,1.96,1.6,2.55.84.59,1.86.89,3.06.89,1.67,0,2.93-.6,3.76-1.81l2.6,1.52c-1.44,2.12-3.57,3.18-6.39,3.18-2.37,0-4.29-.72-5.74-2.17-1.46-1.45-2.19-3.28-2.19-5.5s.72-4,2.16-5.47c1.44-1.47,3.29-2.2,5.54-2.2,2.14,0,3.89.75,5.26,2.25,1.37,1.5,2.06,3.31,2.06,5.45,0,.33-.04.77-.12,1.31h-11.61ZM156.73,24.57h8.57c-.21-1.19-.7-2.08-1.47-2.68-.77-.6-1.67-.9-2.7-.9-1.17,0-2.14.32-2.92.96-.78.64-1.27,1.52-1.49,2.62Z"/>
    <path class="cls-2" d="M178.78,18.13c1.67,0,3.02.53,4.05,1.6,1.03,1.07,1.54,2.54,1.54,4.4v8.95h-3.15v-8.63c0-1.09-.29-1.92-.87-2.51-.58-.58-1.38-.88-2.39-.88-1.11,0-2,.35-2.68,1.04-.68.69-1.02,1.75-1.02,3.16v7.82h-3.15v-14.58h3.15v1.87c.95-1.5,2.46-2.25,4.52-2.25Z"/>
    <path class="cls-2" d="M195.75,21.54h-3.62v7c0,.6.14,1.04.41,1.3.27.26.67.41,1.21.44.54.03,1.2.02,2-.01v2.83c-2.41.29-4.14.08-5.19-.63s-1.57-2.02-1.57-3.92v-7h-2.68v-3.03h2.68v-3.15l3.15-.93v4.08h3.62v3.03Z"/>
    <path class="cls-2" d="M209.43,18.51h3.15v14.58h-3.15v-2.1c-1.19,1.65-2.89,2.48-5.1,2.48-2,0-3.71-.74-5.13-2.23-1.42-1.49-2.13-3.3-2.13-5.44s.71-3.98,2.13-5.45,3.13-2.22,5.13-2.22c2.22,0,3.92.82,5.1,2.45v-2.07ZM201.53,29.13c.88.89,1.97,1.33,3.29,1.33s2.42-.44,3.3-1.33c.88-.88,1.31-2,1.31-3.34s-.44-2.45-1.31-3.34-1.97-1.33-3.3-1.33-2.42.44-3.29,1.33-1.31,2-1.31,3.34.44,2.45,1.31,3.34Z"/>
    <path class="cls-2" d="M224.24,21.54h-3.62v7c0,.6.14,1.04.41,1.3.27.26.67.41,1.21.44.54.03,1.2.02,2-.01v2.83c-2.41.29-4.14.08-5.19-.63s-1.57-2.02-1.57-3.92v-7h-2.68v-3.03h2.68v-3.15l3.15-.93v4.08h3.62v3.03Z"/>
    <path class="cls-2" d="M229.94,15.72c-.4.4-.87.6-1.41.6s-1.02-.2-1.41-.6c-.4-.4-.6-.87-.6-1.41s.19-1.02.58-1.41c.39-.4.86-.6,1.43-.6s1.04.2,1.43.6c.39.4.58.87.58,1.41s-.2,1.02-.6,1.41ZM226.95,33.09v-14.58h3.15v14.58h-3.15Z"/>
    <path class="cls-2" d="M240.49,33.47c-2.14,0-3.96-.74-5.45-2.22-1.5-1.48-2.25-3.29-2.25-5.45s.75-3.98,2.25-5.45c1.5-1.48,3.31-2.22,5.45-2.22s3.98.74,5.47,2.22,2.23,3.29,2.23,5.45-.74,3.98-2.23,5.45c-1.49,1.48-3.31,2.22-5.47,2.22ZM237.25,29.09c.88.88,1.95,1.31,3.24,1.31s2.36-.44,3.24-1.31c.88-.88,1.31-1.97,1.31-3.3s-.44-2.42-1.31-3.3c-.87-.87-1.95-1.31-3.24-1.31s-2.36.44-3.24,1.31c-.88.88-1.31,1.97-1.31,3.3s.44,2.42,1.31,3.3Z"/>
    <path class="cls-2" d="M258.57,18.13c1.67,0,3.02.53,4.05,1.6,1.03,1.07,1.54,2.54,1.54,4.4v8.95h-3.15v-8.63c0-1.09-.29-1.92-.87-2.51-.58-.58-1.38-.88-2.39-.88-1.11,0-2,.35-2.68,1.04-.68.69-1.02,1.75-1.02,3.16v7.82h-3.15v-14.58h3.15v1.87c.95-1.5,2.46-2.25,4.52-2.25Z"/>
  </g>
  <g>
    <polygon class="cls-2" points="39.28 11.64 30.64 20.28 29.12 20.28 26.14 17.29 35.53 7.89 39.28 11.64"/>
    <polygon class="cls-2" points="28.01 22.91 12.99 37.93 9.24 34.18 17.86 25.56 5.72 25.56 5.72 20.26 17.86 20.26 9.24 11.64 12.99 7.89 28.01 22.91"/>
    <polygon class="cls-2" points="39.28 34.18 35.53 37.93 26.14 28.53 29.09 25.58 30.68 25.58 39.28 34.18"/>
  </g>
</svg>
