<?xml version="1.0" encoding="UTF-8"?>
<svg id="_Слой_1" data-name="Слой 1" xmlns="http://www.w3.org/2000/svg" viewBox="0 0 322.33 45">
  <defs>
    <style>
      .cls-1 {
        fill: #0081ff;
      }

      .cls-2 {
        fill: #171c1f;
      }

      .cls-3 {
        fill: #fff;
      }

      .cls-4 {
        fill: #4759a5;
      }
    </style>
  </defs>
  <rect class="cls-4" x="45" y="0" width="45" height="45"/>
  <rect class="cls-1" x="0" y="0" width="45" height="45"/>
  <rect class="cls-2" x="90" y="0" width="232.33" height="45"/>
  <g>
    <path class="cls-3" d="M106.94,33.09l-5.77-20.41h3.53l4.29,15.95,4.64-15.95h3.09l4.61,15.95,4.29-15.95h3.53l-5.77,20.41h-3.88l-4.32-14.9-4.35,14.9h-3.88Z"/>
    <path class="cls-3" d="M136.54,33.46c-2.14,0-3.96-.74-5.45-2.22-1.5-1.48-2.25-3.29-2.25-5.45s.75-3.98,2.25-5.45,3.31-2.22,5.45-2.22,3.98.74,5.47,2.22,2.23,3.29,2.23,5.45-.74,3.98-2.23,5.45c-1.49,1.48-3.31,2.22-5.47,2.22ZM133.31,29.09c.88.88,1.95,1.31,3.24,1.31s2.36-.44,3.24-1.31c.87-.88,1.31-1.97,1.31-3.3s-.44-2.42-1.31-3.3c-.88-.87-1.95-1.31-3.24-1.31s-2.36.44-3.24,1.31c-.88.88-1.31,1.97-1.31,3.3s.44,2.42,1.31,3.3Z"/>
    <path class="cls-3" d="M150.1,20.95c.8-1.81,2.29-2.71,4.49-2.71v3.41c-1.21-.08-2.26.21-3.15.86-.89.65-1.34,1.73-1.34,3.22v7.35h-3.15v-14.58h3.15v2.45Z"/>
    <path class="cls-3" d="M169.67,33.09h-3.76l-5.98-6.74v6.74h-3.15V12.67h3.15v12.28l5.66-6.44h3.85l-6.42,7.14,6.65,7.44Z"/>
    <path class="cls-3" d="M173.46,22.53c0,.49.27.87.8,1.15.53.28,1.19.52,1.95.73.77.2,1.54.44,2.32.71.78.27,1.43.73,1.97,1.39.53.65.8,1.47.8,2.46,0,1.4-.54,2.5-1.62,3.3-1.08.8-2.44,1.2-4.07,1.2-1.44,0-2.67-.3-3.7-.9s-1.78-1.44-2.25-2.51l2.71-1.57c.51,1.4,1.58,2.1,3.24,2.1s2.48-.54,2.48-1.63c0-.47-.27-.85-.8-1.14s-1.19-.54-1.95-.74c-.77-.2-1.54-.44-2.32-.71-.78-.27-1.43-.72-1.97-1.36-.54-.63-.8-1.43-.8-2.41,0-1.34.51-2.42,1.53-3.24,1.02-.82,2.29-1.22,3.81-1.22,1.21,0,2.28.27,3.22.8.94.54,1.67,1.28,2.17,2.23l-2.65,1.49c-.51-1.11-1.42-1.66-2.74-1.66-.6,0-1.11.13-1.52.39-.41.26-.61.65-.61,1.15Z"/>
    <path class="cls-3" d="M191.43,18.13c1.67,0,3.02.53,4.05,1.6,1.03,1.07,1.55,2.54,1.55,4.4v8.95h-3.15v-8.63c0-1.09-.29-1.92-.88-2.51-.58-.58-1.38-.88-2.39-.88-1.11,0-2,.35-2.68,1.04-.68.69-1.02,1.75-1.02,3.16v7.82h-3.15V12.67h3.15v7.7c.95-1.5,2.46-2.25,4.52-2.25Z"/>
    <path class="cls-3" d="M207.14,33.46c-2.14,0-3.96-.74-5.45-2.22-1.5-1.48-2.25-3.29-2.25-5.45s.75-3.98,2.25-5.45,3.31-2.22,5.45-2.22,3.98.74,5.47,2.22,2.23,3.29,2.23,5.45-.74,3.98-2.23,5.45c-1.49,1.48-3.31,2.22-5.47,2.22ZM203.91,29.09c.88.88,1.95,1.31,3.24,1.31s2.36-.44,3.24-1.31c.87-.88,1.31-1.97,1.31-3.3s-.44-2.42-1.31-3.3c-.88-.87-1.95-1.31-3.24-1.31s-2.36.44-3.24,1.31c-.88.88-1.31,1.97-1.31,3.3s.44,2.42,1.31,3.3Z"/>
    <path class="cls-3" d="M225.81,18.13c2,0,3.71.74,5.13,2.23,1.42,1.49,2.13,3.3,2.13,5.44s-.71,3.98-2.13,5.45c-1.42,1.48-3.13,2.22-5.13,2.22-2.22,0-3.92-.82-5.1-2.45v7.9h-3.15v-20.41h3.15v2.1c1.19-1.65,2.89-2.48,5.1-2.48ZM222.02,29.13c.88.89,1.97,1.33,3.3,1.33s2.42-.44,3.29-1.33c.88-.88,1.31-2,1.31-3.34s-.44-2.45-1.31-3.34-1.97-1.33-3.29-1.33-2.42.44-3.3,1.33-1.31,2-1.31,3.34.44,2.45,1.31,3.34Z"/>
    <path class="cls-3" d="M251.18,18.13c2,0,3.71.74,5.13,2.23,1.42,1.49,2.13,3.3,2.13,5.44s-.71,3.98-2.13,5.45c-1.42,1.48-3.13,2.22-5.13,2.22-2.22,0-3.92-.82-5.1-2.45v7.9h-3.15v-20.41h3.15v2.1c1.19-1.65,2.89-2.48,5.1-2.48ZM247.39,29.13c.88.89,1.97,1.33,3.3,1.33s2.42-.44,3.29-1.33c.88-.88,1.31-2,1.31-3.34s-.44-2.45-1.31-3.34-1.97-1.33-3.29-1.33-2.42.44-3.3,1.33-1.31,2-1.31,3.34.44,2.45,1.31,3.34Z"/>
    <path class="cls-3" d="M272.7,18.5h3.15v14.58h-3.15v-2.1c-1.19,1.65-2.89,2.48-5.1,2.48-2,0-3.71-.74-5.13-2.23-1.42-1.49-2.13-3.3-2.13-5.44s.71-3.98,2.13-5.45,3.13-2.22,5.13-2.22c2.22,0,3.92.82,5.1,2.45v-2.07ZM264.8,29.13c.88.89,1.97,1.33,3.29,1.33s2.42-.44,3.3-1.33c.88-.88,1.31-2,1.31-3.34s-.44-2.45-1.31-3.34-1.97-1.33-3.3-1.33-2.42.44-3.29,1.33-1.31,2-1.31,3.34.44,2.45,1.31,3.34Z"/>
    <path class="cls-3" d="M290.98,18.5h3.09v13.91c0,2.22-.73,3.92-2.19,5.1-1.46,1.19-3.23,1.78-5.31,1.78-3.36,0-5.67-1.18-6.91-3.53l2.71-1.57c.76,1.5,2.18,2.25,4.26,2.25,1.36,0,2.42-.35,3.19-1.06.77-.71,1.15-1.7,1.15-2.96v-1.78c-1.19,1.69-2.88,2.54-5.07,2.54-2.06,0-3.8-.73-5.22-2.2-1.42-1.47-2.13-3.24-2.13-5.32s.71-3.85,2.13-5.32c1.42-1.47,3.16-2.2,5.22-2.2,2.2,0,3.89.85,5.07,2.54v-2.16ZM283.04,28.92c.88.88,1.99,1.31,3.31,1.31s2.42-.44,3.31-1.31c.88-.87,1.33-1.96,1.33-3.27s-.44-2.39-1.33-3.27c-.89-.87-1.99-1.31-3.31-1.31s-2.42.44-3.31,1.31c-.88.88-1.33,1.96-1.33,3.27s.44,2.39,1.33,3.27Z"/>
    <path class="cls-3" d="M300.08,27.14c.23,1.11.77,1.96,1.6,2.55.84.59,1.86.89,3.06.89,1.67,0,2.93-.6,3.76-1.81l2.59,1.52c-1.44,2.12-3.57,3.18-6.39,3.18-2.37,0-4.29-.72-5.75-2.17-1.46-1.45-2.19-3.28-2.19-5.5s.72-4,2.16-5.47c1.44-1.47,3.29-2.2,5.54-2.2,2.14,0,3.89.75,5.26,2.25,1.37,1.5,2.06,3.31,2.06,5.45,0,.33-.04.77-.12,1.31h-11.61ZM300.05,24.57h8.57c-.21-1.19-.71-2.08-1.47-2.68-.77-.6-1.67-.9-2.7-.9-1.17,0-2.14.32-2.92.96-.78.64-1.27,1.52-1.49,2.62Z"/>
  </g>
  <g>
    <path class="cls-4" d="M45.94,28.97c2.78,9.27,11.38,16.03,21.56,16.03,12.43,0,22.5-10.07,22.5-22.5S79.93,0,67.5,0s-21.68,9.28-22.45,21.01c1.46,2.45,2.02,3.96.9,7.97h0Z"/>
    <path class="cls-3" d="M66.34,16.86s0,.08,0,.11l-5.51,8c-.89-.04-1.79.12-2.64.47-.37.15-.72.34-1.05.56l-12.09-4.98s0,0,0,7.66l9.44,3.9c.43,1.92,1.74,3.6,3.69,4.41,3.18,1.33,6.84-.19,8.16-3.36.34-.83.5-1.7.48-2.57l7.88-5.63c.06,0,.13,0,.19,0,4.71,0,8.55-3.84,8.55-8.56s-3.83-8.56-8.55-8.56-8.55,3.84-8.55,8.56ZM65.02,33.07c-1.02,2.45-3.84,3.62-6.3,2.6-1.13-.47-1.99-1.33-2.48-2.36l2.78,1.15c1.81.75,3.88-.1,4.63-1.91.75-1.81-.1-3.89-1.91-4.64l-2.88-1.19c1.11-.42,2.37-.44,3.55.05,1.19.49,2.11,1.43,2.6,2.62s.49,2.5,0,3.69M74.89,22.57c-3.14,0-5.69-2.56-5.69-5.7s2.56-5.7,5.69-5.7,5.7,2.56,5.7,5.7-2.56,5.7-5.7,5.7M70.62,16.86c0-2.37,1.92-4.29,4.28-4.29s4.28,1.92,4.28,4.29-1.92,4.28-4.28,4.28-4.28-1.92-4.28-4.28Z"/>
  </g>
  <path class="cls-3" d="M27.77,6.12h-.15v2.74s-.11-.17-.14-.2c-1.13-1.67-2.67-2.69-4.66-3.01-1.12-.19-2.24-.19-3.35.04-1.98.41-3.64,1.39-5.01,2.89-1.18,1.29-1.96,2.8-2.47,4.45-.62,2.02-.73,4.08-.51,6.17.15,1.44.45,2.85,1.02,4.19.56,1.32,1.34,2.48,2.44,3.41,1.3,1.1,2.8,1.79,4.5,2.01,1.36.19,2.72.23,4.07-.07,1.12-.24,2.18-.66,3.02-1.46.42-.4.75-.88,1.08-1.28v.12c0,1.27.04,2.54-.04,3.81-.1,1.67-1.03,2.86-2.49,3.61-1.63.84-3.34.94-5.1.47-.75-.2-1.42-.59-1.96-1.16-.72-.77-1-1.71-1.02-2.75v-.13h-.11c-1.78-.01-3.57,0-5.35,0h-.15s0,.13.01.16c.01.4.02.8.08,1.2.39,2.99,1.97,5.19,4.57,6.65,1.73.97,3.63,1.4,5.6,1.48,1.8.08,3.57-.13,5.28-.73,1.76-.62,3.3-1.58,4.49-3.03,1.53-1.87,2.2-4.05,2.2-6.44.02-7.54,0-15.09,0-22.64v-.5h-5.86ZM27.6,19.82c-.3,1.94-1.65,3.76-3.72,4.27-1.88.46-3.83-.26-4.95-1.86-.79-1.11-1.16-2.36-1.25-3.71-.02-.32-.01-.64-.01-.96-.03-1.39.11-2.74.65-4.03.64-1.51,1.75-2.43,3.39-2.68,1.13-.17,2.24-.1,3.28.41,1.04.5,1.69,1.37,2.11,2.41.41,1.03.62,2.11.64,3.21,0,.98,0,1.97-.14,2.94Z"/>
</svg>
