<?xml version="1.0" encoding="UTF-8"?>
<svg id="_Слой_1" data-name="Слой 1" xmlns="http://www.w3.org/2000/svg" viewBox="0 0 322.71 45">
  <defs>
    <style>
      .cls-1 {
        fill: #171c1f;
      }

      .cls-2 {
        fill: #fff;
      }

      .cls-3 {
        fill: #4759a5;
      }
    </style>
  </defs>
  <rect class="cls-1" x="277.71" y="0" width="45" height="45"/>
  <g>
    <rect class="cls-3" x="97.71" y="0" width="180" height="45"/>
    <g>
      <g>
        <path class="cls-2" d="M145.27,26.76c.23,1.11.77,1.96,1.6,2.55.84.59,1.86.89,3.06.89,1.67,0,2.93-.6,3.76-1.81l2.6,1.52c-1.44,2.12-3.57,3.18-6.39,3.18-2.37,0-4.29-.72-5.74-2.17-1.46-1.45-2.19-3.28-2.19-5.5s.72-4,2.16-5.47c1.44-1.47,3.29-2.2,5.54-2.2,2.14,0,3.89.75,5.26,2.25,1.37,1.5,2.06,3.31,2.06,5.45,0,.33-.04.77-.12,1.31h-11.61ZM145.24,24.19h8.57c-.21-1.19-.7-2.08-1.47-2.68-.77-.6-1.67-.9-2.7-.9-1.17,0-2.14.32-2.92.96-.78.64-1.27,1.52-1.49,2.62Z"/>
        <path class="cls-2" d="M167.28,21.16h-3.62v7c0,.6.14,1.04.41,1.3.27.26.68.41,1.21.44.53.03,1.2.02,2-.01v2.83c-2.41.29-4.14.08-5.19-.63s-1.57-2.02-1.57-3.92v-7h-2.68v-3.03h2.68v-3.15l3.15-.93v4.08h3.62v3.03Z"/>
        <path class="cls-2" d="M173.29,20.58c.8-1.81,2.29-2.71,4.49-2.71v3.41c-1.21-.08-2.26.21-3.15.86-.89.65-1.34,1.73-1.34,3.22v7.35h-3.15v-14.58h3.15v2.45Z"/>
        <path class="cls-2" d="M186.18,33.09c-2.14,0-3.96-.74-5.45-2.22-1.5-1.48-2.25-3.29-2.25-5.45s.75-3.98,2.25-5.45,3.31-2.22,5.45-2.22,3.98.74,5.47,2.22,2.23,3.29,2.23,5.45-.74,3.98-2.23,5.45c-1.49,1.48-3.31,2.22-5.47,2.22ZM182.94,28.71c.88.88,1.95,1.31,3.24,1.31s2.36-.44,3.24-1.31c.87-.88,1.31-1.97,1.31-3.3s-.44-2.42-1.31-3.3c-.88-.87-1.95-1.31-3.24-1.31s-2.36.44-3.24,1.31c-.88.88-1.31,1.97-1.31,3.3s.44,2.42,1.31,3.3Z"/>
        <path class="cls-2" d="M204.32,12.29c1.93,0,3.53.64,4.83,1.92s1.94,2.88,1.94,4.78-.65,3.48-1.94,4.77-2.9,1.94-4.83,1.94h-4.17v7h-3.35V12.29h7.52ZM204.32,22.56c.99,0,1.81-.34,2.45-1.01.64-.67.96-1.52.96-2.55s-.32-1.88-.96-2.55c-.64-.67-1.46-1.01-2.45-1.01h-4.17v7.12h4.17Z"/>
        <path class="cls-2" d="M224.18,18.13h3.15v14.58h-3.15v-2.1c-1.19,1.65-2.89,2.48-5.1,2.48-2,0-3.71-.74-5.13-2.23-1.42-1.49-2.13-3.3-2.13-5.44s.71-3.98,2.13-5.45,3.13-2.22,5.13-2.22c2.22,0,3.92.82,5.1,2.45v-2.07ZM216.28,28.76c.88.89,1.97,1.33,3.29,1.33s2.42-.44,3.3-1.33c.88-.88,1.31-2,1.31-3.34s-.44-2.45-1.31-3.34-1.97-1.33-3.3-1.33-2.42.44-3.29,1.33-1.31,2-1.31,3.34.44,2.45,1.31,3.34Z"/>
        <path class="cls-2" d="M237.74,33.09c-2.2,0-4.03-.74-5.5-2.22-1.47-1.48-2.2-3.29-2.2-5.45s.73-4,2.2-5.47c1.47-1.47,3.3-2.2,5.5-2.2,1.42,0,2.71.34,3.88,1.02,1.17.68,2.04,1.59,2.62,2.74l-2.71,1.57c-.33-.7-.83-1.25-1.5-1.65s-1.44-.6-2.32-.6c-1.28,0-2.36.44-3.22,1.31s-1.3,1.96-1.3,3.27.43,2.39,1.3,3.27,1.94,1.31,3.22,1.31c.86,0,1.63-.2,2.32-.61.69-.41,1.21-.95,1.56-1.63l2.71,1.55c-.62,1.17-1.52,2.09-2.68,2.77-1.17.68-2.46,1.02-3.88,1.02Z"/>
        <polygon class="cls-2" points="259.31 32.71 255.55 32.71 249.57 25.97 249.57 32.71 246.42 32.71 246.42 13.23 249.57 12.3 249.57 24.57 255.23 18.13 259.08 18.13 252.67 25.27 259.31 32.71"/>
      </g>
      <polygon class="cls-2" points="139.07 12.29 139.07 32.71 135.54 32.71 135.54 20.17 130.67 32.13 127.89 32.13 123.03 20.17 123.03 32.71 119.5 32.71 119.5 12.29 123.59 12.29 129.16 27.06 129.4 27.06 134.97 12.29 139.07 12.29"/>
    </g>
  </g>
  <g id="_图层_2" data-name="图层 2">
    <g id="Discord_Logos" data-name="Discord Logos">
      <g id="Discord_Logo_-_Large_-_White" data-name="Discord Logo - Large - White">
        <path class="cls-2" d="M311.32,12.4c-2.1-.96-4.32-1.65-6.6-2.03-.31.56-.59,1.13-.85,1.72-2.43-.37-4.9-.37-7.33,0-.25-.59-.53-1.16-.85-1.72-2.28.39-4.5,1.07-6.61,2.04-4.18,6.18-5.31,12.21-4.74,18.15h0c2.45,1.81,5.19,3.18,8.1,4.06.66-.88,1.24-1.82,1.73-2.8-.95-.35-1.86-.79-2.73-1.3.23-.17.45-.34.67-.5,5.13,2.41,11.06,2.41,16.19,0,.22.18.44.35.67.5-.87.51-1.79.95-2.74,1.31.5.98,1.08,1.91,1.73,2.79,2.91-.88,5.65-2.25,8.1-4.06h0c.66-6.89-1.14-12.86-4.76-18.16ZM294.9,26.91c-1.58,0-2.88-1.43-2.88-3.19s1.26-3.21,2.88-3.21,2.91,1.44,2.88,3.21-1.27,3.19-2.88,3.19ZM305.53,26.91c-1.58,0-2.88-1.43-2.88-3.19s1.26-3.21,2.88-3.21,2.9,1.44,2.88,3.21-1.27,3.19-2.88,3.19Z"/>
      </g>
    </g>
  </g>
</svg>
