<?xml version="1.0" encoding="UTF-8"?>
<svg id="_Слой_1" data-name="Слой 1" xmlns="http://www.w3.org/2000/svg" viewBox="0 0 322 45">
  <defs>
    <style>
      .cls-1 {
        fill: #171c1f;
      }

      .cls-2 {
        fill: #fff;
      }

      .cls-3 {
        fill: #4759a5;
      }
    </style>
  </defs>
  <rect class="cls-1" x="277" y="0" width="45" height="45"/>
  <g>
    <rect class="cls-3" x="97" y="0" width="180" height="45"/>
    <g>
      <g>
        <path class="cls-2" d="M144.56,26.76c.23,1.11.77,1.96,1.6,2.55.84.59,1.86.89,3.06.89,1.67,0,2.93-.6,3.76-1.81l2.6,1.52c-1.44,2.12-3.57,3.18-6.39,3.18-2.37,0-4.29-.72-5.74-2.17-1.46-1.45-2.19-3.28-2.19-5.5s.72-4,2.16-5.47c1.44-1.47,3.29-2.2,5.54-2.2,2.14,0,3.89.75,5.26,2.25,1.37,1.5,2.06,3.31,2.06,5.45,0,.33-.04.77-.12,1.31h-11.61ZM144.53,24.19h8.57c-.21-1.19-.7-2.08-1.47-2.68-.77-.6-1.67-.9-2.7-.9-1.17,0-2.14.32-2.92.96-.78.64-1.27,1.52-1.49,2.62Z"/>
        <path class="cls-2" d="M166.57,21.16h-3.62v7c0,.6.14,1.04.41,1.3.27.26.68.41,1.21.44.53.03,1.2.02,2-.01v2.83c-2.41.29-4.14.08-5.19-.63s-1.57-2.02-1.57-3.92v-7h-2.68v-3.03h2.68v-3.15l3.15-.93v4.08h3.62v3.03Z"/>
        <path class="cls-2" d="M172.58,20.58c.8-1.81,2.29-2.71,4.49-2.71v3.41c-1.21-.08-2.26.21-3.15.86-.89.65-1.34,1.73-1.34,3.22v7.35h-3.15v-14.58h3.15v2.45Z"/>
        <path class="cls-2" d="M185.47,33.09c-2.14,0-3.96-.74-5.45-2.22-1.5-1.48-2.25-3.29-2.25-5.45s.75-3.98,2.25-5.45,3.31-2.22,5.45-2.22,3.98.74,5.47,2.22,2.23,3.29,2.23,5.45-.74,3.98-2.23,5.45c-1.49,1.48-3.31,2.22-5.47,2.22ZM182.23,28.71c.88.88,1.95,1.31,3.24,1.31s2.36-.44,3.24-1.31c.87-.88,1.31-1.97,1.31-3.3s-.44-2.42-1.31-3.3c-.88-.87-1.95-1.31-3.24-1.31s-2.36.44-3.24,1.31c-.88.88-1.31,1.97-1.31,3.3s.44,2.42,1.31,3.3Z"/>
        <path class="cls-2" d="M203.61,12.29c1.93,0,3.53.64,4.83,1.92s1.94,2.88,1.94,4.78-.65,3.48-1.94,4.77-2.9,1.94-4.83,1.94h-4.17v7h-3.35V12.29h7.52ZM203.61,22.56c.99,0,1.81-.34,2.45-1.01.64-.67.96-1.52.96-2.55s-.32-1.88-.96-2.55c-.64-.67-1.46-1.01-2.45-1.01h-4.17v7.12h4.17Z"/>
        <path class="cls-2" d="M223.47,18.13h3.15v14.58h-3.15v-2.1c-1.19,1.65-2.89,2.48-5.1,2.48-2,0-3.71-.74-5.13-2.23-1.42-1.49-2.13-3.3-2.13-5.44s.71-3.98,2.13-5.45,3.13-2.22,5.13-2.22c2.22,0,3.92.82,5.1,2.45v-2.07ZM215.57,28.76c.88.89,1.97,1.33,3.29,1.33s2.42-.44,3.3-1.33c.88-.88,1.31-2,1.31-3.34s-.44-2.45-1.31-3.34-1.97-1.33-3.3-1.33-2.42.44-3.29,1.33-1.31,2-1.31,3.34.44,2.45,1.31,3.34Z"/>
        <path class="cls-2" d="M237.03,33.09c-2.2,0-4.03-.74-5.5-2.22-1.47-1.48-2.2-3.29-2.2-5.45s.73-4,2.2-5.47c1.47-1.47,3.3-2.2,5.5-2.2,1.42,0,2.71.34,3.88,1.02,1.17.68,2.04,1.59,2.62,2.74l-2.71,1.57c-.33-.7-.83-1.25-1.5-1.65s-1.44-.6-2.32-.6c-1.28,0-2.36.44-3.22,1.31s-1.3,1.96-1.3,3.27.43,2.39,1.3,3.27,1.94,1.31,3.22,1.31c.86,0,1.63-.2,2.32-.61.69-.41,1.21-.95,1.56-1.63l2.71,1.55c-.62,1.17-1.52,2.09-2.68,2.77-1.17.68-2.46,1.02-3.88,1.02Z"/>
        <polygon class="cls-2" points="258.61 32.71 254.85 32.71 248.87 25.97 248.87 32.71 245.72 32.71 245.72 13.23 248.87 12.3 248.87 24.57 254.53 18.13 258.38 18.13 251.97 25.27 258.61 32.71"/>
      </g>
      <polygon class="cls-2" points="138.36 12.29 138.36 32.71 134.83 32.71 134.83 20.17 129.96 32.13 127.19 32.13 122.32 20.17 122.32 32.71 118.79 32.71 118.79 12.29 122.88 12.29 128.45 27.06 128.69 27.06 134.26 12.29 138.36 12.29"/>
    </g>
  </g>
  <path class="cls-2" d="M300.93,32.48c-10.93,0-17.17-7.5-17.43-19.97h5.48c.18,9.15,4.22,13.03,7.42,13.83v-13.83h5.16v7.9c3.16-.34,6.48-3.94,7.59-7.9h5.16c-.86,4.88-4.46,8.47-7.02,9.95,2.56,1.2,6.66,4.34,8.22,10.01h-5.68c-1.22-3.8-4.26-6.74-8.27-7.14v7.14h-.62Z"/>
</svg>
