<?xml version="1.0" encoding="UTF-8"?>
<svg xmlns="http://www.w3.org/2000/svg" viewBox="0 0 490 160">
  <defs>
    <style>
      .cls-1 {
        fill: #80c8bb;
      }

      .cls-2 {
        fill: #fff;
      }

      .cls-3 {
        fill: #0c1014;
      }
    </style>
  </defs>
  <g id="background">
    <rect class="cls-2" width="490" height="160" rx="15" ry="15"/>
  </g>
  <g id="main">
    <g>
      <polygon class="cls-1" points="138.09 44.91 111.2 71.8 106.48 71.8 97.17 62.49 126.42 33.24 138.09 44.91"/>
      <polygon class="cls-1" points="103 80 56.24 126.76 44.57 115.09 71.41 88.25 33.6 88.25 33.6 71.75 71.41 71.75 44.57 44.91 56.24 33.24 103 80"/>
      <polygon class="cls-1" points="138.09 115.09 126.42 126.76 97.17 97.51 106.37 88.3 111.31 88.3 138.09 115.09"/>
    </g>
    <g>
      <path class="cls-3" d="M244.9,90.56l26.86-57.32h23.51v93.52h-18.17V60.36l-26.45,53.98h-12.03l-26.45-53.98v66.4h-18.17V33.24h24.05l26.85,57.32Z"/>
      <path class="cls-3" d="M316.11,33.24h61.72v17.37h-42.75v18.97h25.41v17.37h-25.41v22.45h42.75v17.37h-61.72V33.24Z"/>
      <path class="cls-3" d="M394.67,33.24h18.97v76.15h42.75v17.37h-61.72V33.24Z"/>
    </g>
  </g>
</svg>
